<svg xmlns="http://www.w3.org/2000/svg" width="64" height="64" viewBox="0 0 64 64" role="img" aria-label="camel">
  <defs><clipPath id="c-camel"><circle cx="32" cy="32" r="32"/></clipPath></defs>
  <g clip-path="url(#c-camel)">
    <circle cx="32" cy="32" r="32" fill="#6d8fa4"/>
    <g stroke="#d8a566" stroke-width="4.5" stroke-linecap="round">
      <path d="M16 44v13"/><path d="M24 45v12"/><path d="M32 45v12"/><path d="M40 44v11"/>
    </g>
    <ellipse cx="27" cy="40" rx="17" ry="9" fill="#d8a566"/>
    <circle cx="20" cy="32" r="8.5" fill="#d8a566"/>
    <circle cx="33" cy="32.5" r="8" fill="#d8a566"/>
    <path d="M42 40C43 28 45 21 48 16" fill="none" stroke="#d8a566" stroke-width="7.5" stroke-linecap="round"/>
    <ellipse cx="45.5" cy="9.5" rx="2.4" ry="3.6" fill="#d8a566"/>
    <ellipse cx="51" cy="14.5" rx="7.5" ry="5.5" fill="#d8a566" transform="rotate(-18 51 14.5)"/>
    <ellipse cx="57" cy="18.5" rx="4.2" ry="3.4" fill="#d8a566"/>
    <path d="M54.5 21.5h5" stroke="#4a3421" stroke-width="1.7" stroke-linecap="round"/>
    <circle cx="58.4" cy="16.4" r="1.2" fill="#4a3421"/>
    <circle cx="50" cy="12" r="1.9" fill="#4a3421"/>
  </g>
</svg>
